<svg version="1.1"
     baseProfile="full"
     viewBox="-20 -27.65 535 28"
     xmlns="http://www.w3.org/2000/svg">

  <!--
      <rect x="-20" y="-27.65" width="535" height="28" fill="yellow" />
      -->



      <g stroke="blue">
	<g stroke-width=".4"> <!-- semithick -->
	  <path d="M 178.3199 0 l 0 -17" />
	  <path d="M 121.7223 0 l 0 -17" />
	  <path d="M 76.7982 0 l 0 -17" />
	</g>
	<g stroke-width=".25"> <!-- very thin -->
	  <path d="M 306.0821 0 l 0 -5.1" />
	  <path d="M 304.9657 0 l 0 -5.1" />
	  <path d="M 303.8437 0 l 0 -5.1" />
	  <path d="M 302.7160 0 l 0 -5.1" />
	  <path d="M 300.4433 0 l 0 -5.1" />
	  <path d="M 299.2981 0 l 0 -5.1" />
	  <path d="M 298.1470 0 l 0 -5.1" />
	  <path d="M 296.9898 0 l 0 -5.1" />
	  <path d="M 294.6572 0 l 0 -5.1" />
	  <path d="M 293.4817 0 l 0 -5.1" />
	  <path d="M 292.2998 0 l 0 -5.1" />
	  <path d="M 291.1117 0 l 0 -5.1" />
	  <path d="M 288.7161 0 l 0 -5.1" />
	  <path d="M 287.5085 0 l 0 -5.1" />
	  <path d="M 286.2942 0 l 0 -5.1" />
	  <path d="M 285.0733 0 l 0 -5.1" />
	  <path d="M 282.6112 0 l 0 -5.1" />
	  <path d="M 281.3698 0 l 0 -5.1" />
	  <path d="M 280.1213 0 l 0 -5.1" />
	  <path d="M 278.8659 0 l 0 -5.1" />
	  <path d="M 276.3333 0 l 0 -5.1" />
	  <path d="M 275.0562 0 l 0 -5.1" />
	  <path d="M 273.7716 0 l 0 -5.1" />
	  <path d="M 272.4795 0 l 0 -5.1" />
	  <path d="M 269.8725 0 l 0 -5.1" />
	  <path d="M 268.5574 0 l 0 -5.1" />
	  <path d="M 267.2344 0 l 0 -5.1" />
	  <path d="M 265.9035 0 l 0 -5.1" />
	  <path d="M 263.2175 0 l 0 -5.1" />
	  <path d="M 261.8622 0 l 0 -5.1" />
	  <path d="M 260.4986 0 l 0 -5.1" />
	  <path d="M 259.1265 0 l 0 -5.1" />
	  <path d="M 256.3565 0 l 0 -5.1" />
	  <path d="M 254.9584 0 l 0 -5.1" />
	  <path d="M 253.5515 0 l 0 -5.1" />
	  <path d="M 252.1356 0 l 0 -5.1" />
	  <path d="M 249.2763 0 l 0 -5.1" />
	  <path d="M 247.8327 0 l 0 -5.1" />
	  <path d="M 246.3796 0 l 0 -5.1" />
	  <path d="M 244.9169 0 l 0 -5.1" />
	  <path d="M 241.9623 0 l 0 -5.1" />
	  <path d="M 240.4701 0 l 0 -5.1" />
	  <path d="M 238.9678 0 l 0 -5.1" />
	  <path d="M 237.4552 0 l 0 -5.1" />
	  <path d="M 234.3987 0 l 0 -5.1" />
	  <path d="M 232.8545 0 l 0 -5.1" />
	  <path d="M 231.2994 0 l 0 -5.1" />
	  <path d="M 229.7334 0 l 0 -5.1" />
	  <path d="M 226.5677 0 l 0 -5.1" />
	  <path d="M 224.9678 0 l 0 -5.1" />
	  <path d="M 223.3562 0 l 0 -5.1" />
	  <path d="M 221.7328 0 l 0 -5.1" />
	  <path d="M 218.4499 0 l 0 -5.1" />
	  <path d="M 216.7900 0 l 0 -5.1" />
	  <path d="M 215.1176 0 l 0 -5.1" />
	  <path d="M 213.4325 0 l 0 -5.1" />
	  <path d="M 210.0233 0 l 0 -5.1" />
	  <path d="M 208.2988 0 l 0 -5.1" />
	  <path d="M 206.5608 0 l 0 -5.1" />
	  <path d="M 204.8091 0 l 0 -5.1" />
	  <path d="M 201.2635 0 l 0 -5.1" />
	  <path d="M 199.4693 0 l 0 -5.1" />
	  <path d="M 197.6603 0 l 0 -5.1" />
	  <path d="M 195.8365 0 l 0 -5.1" />
	  <path d="M 192.1432 0 l 0 -5.1" />
	  <path d="M 190.2732 0 l 0 -5.1" />
	  <path d="M 188.3873 0 l 0 -5.1" />
	  <path d="M 186.4852 0 l 0 -5.1" />
	  <path d="M 182.6313 0 l 0 -5.1" />
	  <path d="M 180.6790 0 l 0 -5.1" />
	  <path d="M 178.7092 0 l 0 -5.1" />
	  <path d="M 176.7218 0 l 0 -5.1" />
	  <path d="M 172.6928 0 l 0 -5.1" />
	  <path d="M 170.6504 0 l 0 -5.1" />
	  <path d="M 168.5891 0 l 0 -5.1" />
	  <path d="M 166.5084 0 l 0 -5.1" />
	  <path d="M 162.2874 0 l 0 -5.1" />
	  <path d="M 160.1464 0 l 0 -5.1" />
	  <path d="M 157.9845 0 l 0 -5.1" />
	  <path d="M 155.8013 0 l 0 -5.1" />
	  <path d="M 152.4857 0 l 0 -4" />
	  <path d="M 151.3693 0 l 0 -4" />
	  <path d="M 150.2473 0 l 0 -4" />
	  <path d="M 149.1196 0 l 0 -4" />
	  <path d="M 147.9862 0 l 0 -4" />
	  <path d="M 146.8469 0 l 0 -4" />
	  <path d="M 145.7017 0 l 0 -4" />
	  <path d="M 144.5505 0 l 0 -4" />
	  <path d="M 143.3934 0 l 0 -4" />
	  <path d="M 141.0608 0 l 0 -4" />
	  <path d="M 139.8853 0 l 0 -4" />
	  <path d="M 138.7034 0 l 0 -4" />
	  <path d="M 137.5153 0 l 0 -4" />
	  <path d="M 136.3207 0 l 0 -4" />
	  <path d="M 135.1196 0 l 0 -4" />
	  <path d="M 133.9121 0 l 0 -4" />
	  <path d="M 132.6978 0 l 0 -4" />
	  <path d="M 131.4769 0 l 0 -4" />
	  <path d="M 129.0148 0 l 0 -4" />
	  <path d="M 127.7734 0 l 0 -4" />
	  <path d="M 126.5249 0 l 0 -4" />
	  <path d="M 125.2695 0 l 0 -4" />
	  <path d="M 124.0068 0 l 0 -4" />
	  <path d="M 122.7369 0 l 0 -4" />
	  <path d="M 121.4597 0 l 0 -4" />
	  <path d="M 120.1751 0 l 0 -4" />
	  <path d="M 118.8831 0 l 0 -4" />
	  <path d="M 116.2761 0 l 0 -4" />
	  <path d="M 114.9610 0 l 0 -4" />
	  <path d="M 113.6380 0 l 0 -4" />
	  <path d="M 112.3071 0 l 0 -4" />
	  <path d="M 110.9682 0 l 0 -4" />
	  <path d="M 109.6211 0 l 0 -4" />
	  <path d="M 108.2658 0 l 0 -4" />
	  <path d="M 106.9021 0 l 0 -4" />
	  <path d="M 105.5301 0 l 0 -4" />
	  <path d="M 102.7601 0 l 0 -4" />
	  <path d="M 101.3620 0 l 0 -4" />
	  <path d="M 99.9551 0 l 0 -4" />
	  <path d="M 98.5392 0 l 0 -4" />
	  <path d="M 97.1141 0 l 0 -4" />
	  <path d="M 95.6799 0 l 0 -4" />
	  <path d="M 94.2363 0 l 0 -4" />
	  <path d="M 92.7832 0 l 0 -4" />
	  <path d="M 91.3205 0 l 0 -4" />
	  <path d="M 88.3659 0 l 0 -4" />
	  <path d="M 86.8737 0 l 0 -4" />
	  <path d="M 85.3714 0 l 0 -4" />
	  <path d="M 83.8588 0 l 0 -4" />
	  <path d="M 82.3358 0 l 0 -4" />
	  <path d="M 80.8023 0 l 0 -4" />
	  <path d="M 79.2581 0 l 0 -4" />
	  <path d="M 77.7030 0 l 0 -4" />
	  <path d="M 76.1370 0 l 0 -4" />
	  <path d="M 72.9713 0 l 0 -4" />
	  <path d="M 71.3714 0 l 0 -4" />
	  <path d="M 69.7598 0 l 0 -4" />
	  <path d="M 68.1364 0 l 0 -4" />
	  <path d="M 66.5010 0 l 0 -4" />
	  <path d="M 64.8535 0 l 0 -4" />
	  <path d="M 63.1936 0 l 0 -4" />
	  <path d="M 61.5212 0 l 0 -4" />
	  <path d="M 59.8361 0 l 0 -4" />
	  <path d="M 56.4269 0 l 0 -4" />
	  <path d="M 54.7024 0 l 0 -4" />
	  <path d="M 52.9644 0 l 0 -4" />
	  <path d="M 51.2127 0 l 0 -4" />
	  <path d="M 49.4470 0 l 0 -4" />
	  <path d="M 47.6671 0 l 0 -4" />
	  <path d="M 45.8728 0 l 0 -4" />
	  <path d="M 44.0639 0 l 0 -4" />
	  <path d="M 42.2401 0 l 0 -4" />
	  <path d="M 38.5468 0 l 0 -4" />
	  <path d="M 36.6768 0 l 0 -4" />
	  <path d="M 34.7909 0 l 0 -4" />
	  <path d="M 32.8888 0 l 0 -4" />
	  <path d="M 30.9702 0 l 0 -4" />
	  <path d="M 29.0349 0 l 0 -4" />
	  <path d="M 27.0825 0 l 0 -4" />
	  <path d="M 25.1128 0 l 0 -4" />
	  <path d="M 23.1254 0 l 0 -4" />
	  <path d="M 19.0964 0 l 0 -4" />
	  <path d="M 17.0540 0 l 0 -4" />
	  <path d="M 14.9927 0 l 0 -4" />
	  <path d="M 12.9120 0 l 0 -4" />
	  <path d="M 10.8115 0 l 0 -4" />
	  <path d="M 8.6910 0 l 0 -4" />
	  <path d="M 6.5500 0 l 0 -4" />
	  <path d="M 4.3881 0 l 0 -4" />
	  <path d="M 2.2049 0 l 0 -4" />
	</g> <!-- very thin -->
      </g> <!-- azul -->
      <g stroke="black">

	<g stroke-width=".25"> <!-- very thin -->
	  <path d="M 508.0091 0 l 0 -7.7" />
	  <path d="M 505.7594 0 l 0 -7.7" />
	  <path d="M 503.4867 0 l 0 -7.7" />
	  <path d="M 501.1904 0 l 0 -7.7" />
	  <path d="M 496.5251 0 l 0 -7.7" />
	  <path d="M 494.1551 0 l 0 -7.7" />
	  <path d="M 491.7595 0 l 0 -7.7" />
	  <path d="M 489.3377 0 l 0 -7.7" />
	  <path d="M 484.4132 0 l 0 -7.7" />
	  <path d="M 481.9093 0 l 0 -7.7" />
	  <path d="M 479.3768 0 l 0 -7.7" />
	  <path d="M 476.8150 0 l 0 -7.7" />
	  <path d="M 471.6008 0 l 0 -7.7" />
	  <path d="M 468.9469 0 l 0 -7.7" />
	  <path d="M 466.2609 0 l 0 -7.7" />
	  <path d="M 463.5420 0 l 0 -7.7" />
	  <path d="M 458.0019 0 l 0 -7.7" />
	  <path d="M 455.1790 0 l 0 -7.7" />
	  <path d="M 452.3197 0 l 0 -7.7" />
	  <path d="M 449.4230 0 l 0 -7.7" />
	  <path d="M 443.5135 0 l 0 -7.7" />
	  <path d="M 440.4986 0 l 0 -7.7" />
	  <path d="M 437.4421 0 l 0 -7.7" />
	  <path d="M 434.3428 0 l 0 -7.7" />
	  <path d="M 428.0112 0 l 0 -7.7" />
	  <path d="M 424.7762 0 l 0 -7.7" />
	  <path d="M 421.4933 0 l 0 -7.7" />
	  <path d="M 418.1610 0 l 0 -7.7" />
	  <path d="M 411.3422 0 l 0 -7.7" />
	  <path d="M 407.8525 0 l 0 -7.7" />
	  <path d="M 404.3069 0 l 0 -7.7" />
	  <path d="M 400.7037 0 l 0 -7.7" />
	  <path d="M 393.3166 0 l 0 -7.7" />
	  <path d="M 389.5286 0 l 0 -7.7" />
	  <path d="M 385.6747 0 l 0 -7.7" />
	  <path d="M 381.7526 0 l 0 -7.7" />
	  <path d="M 373.6938 0 l 0 -7.7" />
	  <path d="M 369.5518 0 l 0 -7.7" />
	  <path d="M 365.3308 0 l 0 -7.7" />
	  <path d="M 361.0279 0 l 0 -7.7" />
	  <path d="M 352.1630 0 l 0 -7.7" />
	  <path d="M 347.5940 0 l 0 -7.7" />
	  <path d="M 342.9287 0 l 0 -7.7" />
	  <path d="M 338.1631 0 l 0 -7.7" />
	  <path d="M 328.3129 0 l 0 -7.7" />
	  <path d="M 323.2186 0 l 0 -7.7" />
	  <path d="M 318.0044 0 l 0 -7.7" />
	  <path d="M 312.6645 0 l 0 -7.7" />
	  <path d="M 301.5826 0 l 0 -7.7" />
	  <path d="M 295.8266 0 l 0 -7.7" />
	  <path d="M 289.9171 0 l 0 -7.7" />
	  <path d="M 283.8457 0 l 0 -7.7" />
	  <path d="M 271.1798 0 l 0 -7.7" />
	  <path d="M 264.5646 0 l 0 -7.7" />
	  <path d="M 257.7458 0 l 0 -7.7" />
	  <path d="M 250.7105 0 l 0 -7.7" />
	  <path d="M 235.9322 0 l 0 -7.7" />
	  <path d="M 228.1562 0 l 0 -7.7" />
	  <path d="M 220.0974 0 l 0 -7.7" />
	  <path d="M 211.7344 0 l 0 -7.7" />
	  <path d="M 193.9975 0 l 0 -7.7" />
	  <path d="M 184.5666 0 l 0 -7.7" />
	  <path d="M 174.7165 0 l 0 -7.7" />
	  <path d="M 164.4080 0 l 0 -7.7" />
	  <path d="M 142.2302 0 l 0 -7.7" />
	  <path d="M 130.2493 0 l 0 -7.7" />
	  <path d="M 117.5834 0 l 0 -7.7" />
	  <path d="M 104.1494 0 l 0 -7.7" />
	  <path d="M 89.8481 0 l 0 -7.7" />
	  <path d="M 74.5598 0 l 0 -7.7" />
	  <path d="M 58.1380 0 l 0 -7.7" />
	  <path d="M 40.4011 0 l 0 -7.7" />
	  <path d="M 21.1200 0 l 0 -7.7" />
	</g> <!-- very thin -->
	<g stroke-width=".4"> <!-- semithick -->
	  <path d="M 498.8700 0 l 0 -10" />
	  <path d="M 474.2232 0 l 0 -10" />
	  <path d="M 446.4880 0 l 0 -10" />
	  <path d="M 414.7778 0 l 0 -10" />
	  <path d="M 377.7599 0 l 0 -10" />
	  <path d="M 333.2927 0 l 0 -10" />
	  <path d="M 277.6032 0 l 0 -10" />
	  <path d="M 203.0434 0 l 0 -10" />
	</g>
	<g stroke-width=".7"> <!-- thick -->
	  
	  <path d="M 510.2362 -14 l 0 14 L 0 0 l 0 -14" fill="none"/> <!-- linha da barra -->
	  <path d="M 486.8891 0 l 0 -14" />
	  <path d="M 460.7892 0 l 0 -14" />
	  <path d="M 431.1996 0 l 0 -14" />
	  <path d="M 397.0410 0 l 0 -14" />
	  <path d="M 356.6398 0 l 0 -14" />
	  <path d="M 307.1928 0 l 0 -14" />
	  <path d="M 243.4445 0 l 0 -14" />
	  <path d="M 153.5964 0 l 0 -14" />
	</g> <!-- thick -->
      </g> <!-- black -->  

      <g font-size="8" font-family="sans-serif" fill="black" stroke="none" text-anchor="middle">
	<g font-size="5.5">
	  <g fill="blue">
	    <text x="178.3199" y="-19">√5</text>
	    <text x="121.7223" y="-19">√3</text>
	    <text x="76.7982" y="-19">√2</text>
	  </g>
	  <text x="142.2302" y="-9.5">1.9</text>
	  <text x="130.2493" y="-9.5">1.8</text>
	  <text x="117.5834" y="-9.5">1.7</text>
	  <text x="104.1494" y="-9.5">1.6</text>
	  <text x="89.8481" y="-9.5">1.5</text>
	  <text x="74.5598" y="-9.5">1.4</text>
	  <text x="58.1380" y="-9.5">1.3</text>
	  <text x="40.4011" y="-9.5">1.2</text>
	  <text x="21.1200" y="-9.5">1.1</text>
	  <text x="498.8700" y="-11.5">9.5</text>
	  <text x="474.2232" y="-11.5">8.5</text>
	  <text x="446.4880" y="-11.5">7.5</text>
	  <text x="414.7778" y="-11.5">6.5</text>
	  <text x="377.7599" y="-11.5">5.5</text>
	  <text x="333.2927" y="-11.5">4.5</text>
	  <text x="277.6032" y="-11.5">3.5</text>
	  <text x="203.0434" y="-11.5">2.5</text>
	</g>
	<text x="510.2362" y="-15.5">1</text>
	<text x="486.8891" y="-15.5">9</text>
	<text x="460.7892" y="-15.5">8</text>
	<text x="431.1996" y="-15.5">7</text>
	<text x="397.0410" y="-15.5">6</text>
	<text x="356.6398" y="-15.5">5</text>
	<text x="307.1928" y="-15.5">4</text>
	<text x="243.4445" y="-15.5">3</text>
	<text x="153.5964" y="-15.5">2</text>
	<text x="0.0000" y="-15.5">1</text>

	</g>
      </svg>
