<svg version="1.1"
     baseProfile="full"
     viewBox="-20 -0.35 535 28"
     xmlns="http://www.w3.org/2000/svg">

  <rect x="-20" y="-0.35" width="535" height="28" fill="yellow" />

<g stroke="black">
  <g stroke="blue">
    <g stroke-width=".4"> <!-- semithick -->
      <path d="M 234.8130 0 l 0 14" />
      <path d="M 186.6693 0 l 0 14" />
      <path d="M 102.0569 0 l 0 14" />
      <path d="M -0.0000 0 l 0 14" />
    </g>
    <g stroke-width=".25"> <!-- very thin -->
      <path d="M 254.3000 0 l 0 5" />
      <path d="M 252.9292 0 l 0 5" />
      <path d="M 251.5405 0 l 0 5" />
      <path d="M 250.1334 0 l 0 5" />
      <path d="M 247.2626 0 l 0 5" />
      <path d="M 245.7979 0 l 0 5" />
      <path d="M 244.3131 0 l 0 5" />
      <path d="M 242.8077 0 l 0 5" />
      <path d="M 239.7330 0 l 0 5" />
      <path d="M 238.1626 0 l 0 5" />
      <path d="M 236.5695 0 l 0 5" />
      <path d="M 234.9530 0 l 0 5" />
      <path d="M 231.6476 0 l 0 5" />
      <path d="M 229.9574 0 l 0 5" />
      <path d="M 228.2414 0 l 0 5" />
      <path d="M 226.4987 0 l 0 5" />
      <path d="M 222.9306 0 l 0 5" />
      <path d="M 221.1036 0 l 0 5" />
      <path d="M 219.2469 0 l 0 5" />
      <path d="M 217.3597 0 l 0 5" />
      <path d="M 213.4900 0 l 0 5" />
      <path d="M 211.5056 0 l 0 5" />
      <path d="M 209.4869 0 l 0 5" />
      <path d="M 207.4327 0 l 0 5" />
      <path d="M 203.2138 0 l 0 5" />
      <path d="M 201.0466 0 l 0 5" />
      <path d="M 198.8393 0 l 0 5" />
      <path d="M 196.5906 0 l 0 5" />
      <path d="M 191.9632 0 l 0 5" />
      <path d="M 189.5816 0 l 0 5" />
      <path d="M 187.1526 0 l 0 5" />
      <path d="M 184.6745 0 l 0 5" />
      <path d="M 180.8614 0 l 0 4" />
      <path d="M 179.5639 0 l 0 4" />
      <path d="M 178.2527 0 l 0 4" />
      <path d="M 176.9276 0 l 0 4" />
      <path d="M 175.5883 0 l 0 4" />
      <path d="M 174.2346 0 l 0 4" />
      <path d="M 172.8662 0 l 0 4" />
      <path d="M 171.4828 0 l 0 4" />
      <path d="M 170.0840 0 l 0 4" />
      <path d="M 167.2395 0 l 0 4" />
      <path d="M 165.7930 0 l 0 4" />
      <path d="M 164.3300 0 l 0 4" />
      <path d="M 162.8501 0 l 0 4" />
      <path d="M 161.3531 0 l 0 4" />
      <path d="M 159.8384 0 l 0 4" />
      <path d="M 158.3058 0 l 0 4" />
      <path d="M 156.7548 0 l 0 4" />
      <path d="M 155.1852 0 l 0 4" />
      <path d="M 151.9881 0 l 0 4" />
      <path d="M 150.3599 0 l 0 4" />
      <path d="M 148.7113 0 l 0 4" />
      <path d="M 147.0418 0 l 0 4" />
      <path d="M 145.3510 0 l 0 4" />
      <path d="M 143.6384 0 l 0 4" />
      <path d="M 141.9036 0 l 0 4" />
      <path d="M 140.1459 0 l 0 4" />
      <path d="M 138.3649 0 l 0 4" />
      <path d="M 134.7306 0 l 0 4" />
      <path d="M 132.8762 0 l 0 4" />
      <path d="M 130.9961 0 l 0 4" />
      <path d="M 129.0897 0 l 0 4" />
      <path d="M 127.1563 0 l 0 4" />
      <path d="M 125.1954 0 l 0 4" />
      <path d="M 123.2060 0 l 0 4" />
      <path d="M 121.1876 0 l 0 4" />
      <path d="M 119.1394 0 l 0 4" />
      <path d="M 114.9503 0 l 0 4" />
      <path d="M 112.8077 0 l 0 4" />
      <path d="M 110.6320 0 l 0 4" />
      <path d="M 108.4222 0 l 0 4" />
      <path d="M 106.1773 0 l 0 4" />
      <path d="M 103.8965 0 l 0 4" />
      <path d="M 101.5785 0 l 0 4" />
      <path d="M 99.2224 0 l 0 4" />
      <path d="M 96.8270 0 l 0 4" />
      <path d="M 91.9136 0 l 0 4" />
      <path d="M 89.3930 0 l 0 4" />
      <path d="M 86.8282 0 l 0 4" />
      <path d="M 84.2177 0 l 0 4" />
      <path d="M 81.5599 0 l 0 4" />
      <path d="M 78.8535 0 l 0 4" />
      <path d="M 76.0967 0 l 0 4" />
      <path d="M 73.2880 0 l 0 4" />
      <path d="M 70.4254 0 l 0 4" />
      <path d="M 64.5314 0 l 0 4" />
      <path d="M 61.4959 0 l 0 4" />
      <path d="M 58.3985 0 l 0 4" />
      <path d="M 55.2371 0 l 0 4" />
      <path d="M 52.0091 0 l 0 4" />
      <path d="M 48.7120 0 l 0 4" />
      <path d="M 45.3431 0 l 0 4" />
      <path d="M 41.8997 0 l 0 4" />
      <path d="M 38.3786 0 l 0 4" />
      <path d="M 31.0906 0 l 0 4" />
      <path d="M 27.3166 0 l 0 4" />
      <path d="M 23.4510 0 l 0 4" />
      <path d="M 19.4897 0 l 0 4" />
      <path d="M 15.4283 0 l 0 4" />
      <path d="M 11.2622 0 l 0 4" />
      <path d="M 6.9864 0 l 0 4" />
      <path d="M 2.5955 0 l 0 4" />
      <path d="M -1.9161 0 l 0 4" />
    </g>
  </g>
  <g stroke-width=".25"> <!-- very thin -->
    <path d="M 337.4665 0 l 0 7.6" />
    <path d="M 334.5727 0 l 0 7.6" />
    <path d="M 331.5784 0 l 0 7.6" />
    <path d="M 328.4774 0 l 0 7.6" />
    <path d="M 321.9268 0 l 0 7.6" />
    <path d="M 318.4615 0 l 0 7.6" />
    <path d="M 314.8576 0 l 0 7.6" />
    <path d="M 311.1051 0 l 0 7.6" />
    <path d="M 303.1085 0 l 0 7.6" />
    <path d="M 298.8383 0 l 0 7.6" />
    <path d="M 294.3669 0 l 0 7.6" />
    <path d="M 289.6770 0 l 0 7.6" />
    <path d="M 279.5616 0 l 0 7.6" />
    <path d="M 274.0890 0 l 0 7.6" />
    <path d="M 268.3029 0 l 0 7.6" />
    <path d="M 262.1704 0 l 0 7.6" />
    <path d="M 248.7076 0 l 0 7.6" />
    <path d="M 241.2811 0 l 0 7.6" />
    <path d="M 233.3126 0 l 0 7.6" />
    <path d="M 224.7287 0 l 0 7.6" />
    <path d="M 205.3421 0 l 0 7.6" />
    <path d="M 194.2991 0 l 0 7.6" />
    <path d="M 182.1455 0 l 0 7.6" />
    <path d="M 168.6697 0 l 0 7.6" />
    <path d="M 136.5600 0 l 0 7.6" />
    <path d="M 117.0606 0 l 0 7.6" />
    <path d="M 94.3911 0 l 0 7.6" />
    <path d="M 67.5072 0 l 0 7.6" />
  </g>
  <g stroke-width=".4"> <!-- semithick -->
    <path d="M 452.7786 0 l 0 10" />
    <path d="M 446.7766 0 l 0 10" />
    <path d="M 440.1253 0 l 0 10" />
    <path d="M 432.6864 0 l 0 10" />
    <path d="M 424.2749 0 l 0 10" />
    <path d="M 414.6365 0 l 0 10" />
    <path d="M 403.4089 0 l 0 10" />
    <path d="M 390.0545 0 l 0 10" />
    <path d="M 373.7299 0 l 0 10" />
    <path d="M 353.0145 0 l 0 10" />
    <path d="M 325.2627 0 l 0 10" />
    <path d="M 284.7493 0 l 0 10" />
    <path d="M 215.4410 0 l 0 10" />
    <path d="M 34.7767 0 l 0 10" />
    <path d="M 508.1969 0 l 0 14" />
    <path d="M 503.8510 0 l 0 14" />
    <path d="M 501.5296 0 l 0 14" />
    <path d="M 499.0979 0 l 0 14" />
    <path d="M 496.5458 0 l 0 14" />
    <path d="M 491.0339 0 l 0 14" />
    <path d="M 488.0463 0 l 0 14" />
    <path d="M 484.8823 0 l 0 14" />
    <path d="M 481.5220 0 l 0 14" />
    <path d="M 474.1151 0 l 0 14" />
    <path d="M 470.0083 0 l 0 14" />
    <path d="M 465.5823 0 l 0 14" />
    <path d="M 460.7892 0 l 0 14" />
    <path d="M 449.8515 0 l 0 14" />
    <path d="M 443.5398 0 l 0 14" />
    <path d="M 436.5145 0 l 0 14" />
    <path d="M 428.6162 0 l 0 14" />
    <path d="M 409.2497 0 l 0 14" />
    <path d="M 397.0410 0 l 0 14" />
    <path d="M 382.3339 0 l 0 14" />
    <path d="M 364.0455 0 l 0 14" />
    <path d="M 307.1928 0 l 0 14" />
    <path d="M 255.6533 0 l 0 14" />
    <path d="M 153.5964 0 l 0 14" />
  </g>
  <g stroke-width=".7"> <!-- thick -->
    <path fill="none" d="M -6.5546 14 l 0 -14 L 510.2362 0 l 0 14" />
    <path d="M 506.0708 0 l 0 14" />
    <path d="M 493.8621 0 l 0 14" />
    <path d="M 477.9421 0 l 0 14" />
    <path d="M 455.5701 0 l 0 14" />
    <path d="M 419.6286 0 l 0 14" />
    <path d="M 340.2657 0 l 0 14" />
  </g>
</g>

<g font-size="7" font-family="sans-serif" fill="black" stroke="none" text-anchor="middle">
  <g font-size="5.5">
    <g fill="blue">
      <text x="186.6693" y="20">√5</text>
      <text x="102.0569" y="20">√3</text>
      <text x="0.0000" y="20">√2</text>
    </g>
    <text x="136.5600" y="13.5">1.9</text>
    <text x="117.0606" y="13.5">1.8</text>
    <text x="94.3911" y="13.5">1.7</text>
    <text x="67.5072" y="13.5">1.6</text>
    <text x="-9.5546" y="20">1.4</text>
    <text x="373.7299" y="15.5">6.5</text>
    <text x="353.0145" y="15.5">5.5</text>
    <text x="325.2627" y="15.5">4.5</text>
    <text x="284.7493" y="15.5">3.5</text>
    <text x="215.4410" y="15.5">2.5</text>
    <text x="34.7767" y="15.5">1.5</text>
  </g>
  <g fill="blue" font-size="6">
    <text x="234.8130" y="19">e</text>
  </g>
  <text x="409.2497" y="21">9</text>
  <text x="397.0410" y="21">8</text>
  <text x="382.3339" y="21">7</text>
  <text x="364.0455" y="21">6</text>
  <text x="307.1928" y="21">4</text>
  <text x="255.6533" y="21">3</text>
  <text x="153.5964" y="21">2</text>
  <text x="506.0708" y="21">30</text>
  <text x="493.8621" y="21">25</text>
  <text x="477.9421" y="21">20</text>
  <text x="455.5701" y="21">15</text>
  <text x="419.6286" y="21">10</text>
  <text x="340.2657" y="21">5</text>
</g>
</svg>
