<svg height="200" width="600">
  <g font-size="10" font-family="sans-serif" fill="black" stroke="none">
    <g font-size="8">
      <g fill="blue">
	<text x="178.3199" y="21.25">&radic;<span style="text-decoration:overline;">5</span></text>
	<text x="121.7223" y="21.25">&radic;<span style="text-decoration:overline;">3</span></text>
	<text x="76.7982" y="21.25">&radic;<span style="text-decoration:overline;">2</span></text>
      </g>
      <text x="142.2302" y="11.9">1.9</text>
      <text x="130.2493" y="11.9">1.8</text>
      <text x="117.5834" y="11.9">1.7</text>
      <text x="104.1494" y="11.9">1.6</text>
      <text x="89.8481" y="11.9">1.5</text>
      <text x="74.5598" y="11.9">1.4</text>
      <text x="58.1380" y="11.9">1.3</text>
      <text x="40.4011" y="11.9">1.2</text>
      <text x="21.1200" y="11.9">1.1</text>
      <text x="498.8700" y="14.2">9.5</text>
      <text x="474.2232" y="14.2">8.5</text>
      <text x="446.4880" y="14.2">7.5</text>
      <text x="414.7778" y="14.2">6.5</text>
      <text x="377.7599" y="14.2">5.5</text>
      <text x="333.2927" y="14.2">4.5</text>
      <text x="277.6032" y="14.2">3.5</text>
      <text x="203.0434" y="14.2">2.5</text>
    </g>
    <text x="510.2362" y="20">1</text>
    <text x="486.8891" y="20">9</text>
    <text x="460.7892" y="20">8</text>
    <text x="431.1996" y="20">7</text>
    <text x="397.0410" y="20">6</text>
    <text x="356.6398" y="20">5</text>
    <text x="307.1928" y="20">4</text>
    <text x="243.4445" y="20">3</text>
    <text x="153.5964" y="20">2</text>
    <text x="0.0000" y="20">1</text>
  </g>
</svg>

